<svg xmlns="http://www.w3.org/2000/svg" width="50" height="50" viewBox="0 0 50 50" fill="none">
  <path d="M16 3C8.832 3 3 8.832 3 16v18c0 7.168 5.832 13 13 13h18c7.168 0 13-5.832 13-13V16c0-7.168-5.832-13-13-13H16zm0 4h18c4.963 0 9 4.037 9 9v18c0 4.963-4.037 9-9 9H16c-4.963 0-9-4.037-9-9V16c0-4.963 4.037-9 9-9zm21 4a2 2 0 100 4 2 2 0 000-4zm-12 3c-6.063 0-11 4.937-11 11s4.937 11 11 11 11-4.937 11-11-4.937-11-11-11zm0 4c3.859 0 7 3.14 7 7s-3.141 7-7 7-7-3.14-7-7 3.141-7 7-7z" fill="#3D3D3D"/>
</svg>
